HIERARCHY
ROOT Pelvis
{
	OFFSET 0.000000 0.000000 0.000000
	CHANNELS 6 Xposition Yposition Zposition Xrotation Yrotation Zrotation
	JOINT LeftUpLeg_virtual
	{
		OFFSET 0.000000 0.000000 0.000000
		CHANNELS 3 Xrotation Yrotation Zrotation
		JOINT LeftUpLeg
		{
			OFFSET 8.479700 -4.795502 -0.379100
			CHANNELS 3 Xrotation Yrotation Zrotation
			JOINT LeftLeg
			{
				OFFSET 0.024144 -32.555107 0.112900
				CHANNELS 3 Xrotation Yrotation Zrotation
				JOINT LeftFoot
				{
					OFFSET -0.024144 -32.638630 -3.012600
					CHANNELS 3 Xrotation Yrotation Zrotation
					JOINT LeftToeBase
					{
						OFFSET 0.970200 -13.225400 11.864200
						CHANNELS 3 Xrotation Yrotation Zrotation
						End Site
						{
							OFFSET 0 0 0
						}
					}
				}
			}
		}
	}
	JOINT RightUpLeg_virtual
	{
		OFFSET 0.000000 0.000000 0.000000
		CHANNELS 3 Xrotation Yrotation Zrotation
		JOINT RightUpLeg
		{
			OFFSET -8.479700 -4.795502 -0.379100
			CHANNELS 3 Xrotation Yrotation Zrotation
			JOINT RightLeg
			{
				OFFSET -0.023144 -32.555092 0.112900
				CHANNELS 3 Xrotation Yrotation Zrotation
				JOINT RightFoot
				{
					OFFSET 0.023144 -32.638641 -3.012700
					CHANNELS 3 Xrotation Yrotation Zrotation
					JOINT RightToeBase
					{
						OFFSET -0.970200 -13.225400 11.864200
						CHANNELS 3 Xrotation Yrotation Zrotation
						End Site
						{
							OFFSET 0 0 0
						}
					}
				}
			}
		}
	}
	JOINT Hips_virtual
	{
		OFFSET 0.000000 0.000000 0.000000
		CHANNELS 3 Xrotation Yrotation Zrotation
		JOINT Hips
		{
			OFFSET -0.000000 -0.000000 -0.000000
			CHANNELS 3 Xrotation Yrotation Zrotation
			JOINT Spine
			{
				OFFSET 0.000000 7.722000 1.166200
				CHANNELS 3 Xrotation Yrotation Zrotation
				JOINT Spine1
				{
					OFFSET 0.000000 12.024101 0.248800
					CHANNELS 3 Xrotation Yrotation Zrotation
					JOINT Spine2
					{
						OFFSET 0.000000 11.502998 -0.491200
						CHANNELS 3 Xrotation Yrotation Zrotation
						JOINT Neck_virtual
						{
							OFFSET 0.000000 0.000000 0.000000
							CHANNELS 3 Xrotation Yrotation Zrotation
							JOINT Neck
							{
								OFFSET 0.000000 18.430702 -3.123100
								CHANNELS 3 Xrotation Yrotation Zrotation
								JOINT Head
								{
									OFFSET 0.000000 9.051102 1.034000
									CHANNELS 3 Xrotation Yrotation Zrotation
									End Site
									{
										OFFSET 0 0 0
									}
								}
							}
						}
						JOINT LeftShoulder_virtual
						{
							OFFSET 0.000000 0.000000 0.000000
							CHANNELS 3 Xrotation Yrotation Zrotation
							JOINT LeftShoulder
							{
								OFFSET 6.197800 13.665199 -4.064700
								CHANNELS 3 Xrotation Yrotation Zrotation
								JOINT LeftArm
								{
									OFFSET 7.778100 -0.187103 -1.709300
									CHANNELS 3 Xrotation Yrotation Zrotation
									JOINT LeftForeArm
									{
										OFFSET 22.049376 0.000000 0.000000
										CHANNELS 3 Xrotation Yrotation Zrotation
										JOINT LeftHand
										{
											OFFSET 23.009392 0.000000 0.000000
											CHANNELS 3 Xrotation Yrotation Zrotation
											End Site
											{
												OFFSET 0 0 0
											}
										}
									}
								}
							}
						}
						JOINT RightShoulder_virtual
						{
							OFFSET 0.000000 0.000000 0.000000
							CHANNELS 3 Xrotation Yrotation Zrotation
							JOINT RightShoulder
							{
								OFFSET -6.197800 13.665199 -4.064700
								CHANNELS 3 Xrotation Yrotation Zrotation
								JOINT RightArm
								{
									OFFSET -7.778100 -0.187103 -1.709300
									CHANNELS 3 Xrotation Yrotation Zrotation
									JOINT RightForeArm
									{
										OFFSET -22.049376 0.000000 0.000000
										CHANNELS 3 Xrotation Yrotation Zrotation
										JOINT RightHand
										{
											OFFSET -23.009392 0.000000 0.000000
											CHANNELS 3 Xrotation Yrotation Zrotation
											End Site
											{
												OFFSET 0 0 0
											}
										}
									}
								}
							}
						}
					}
				}
			}
		}
	}
}
MOTION
Frames: 11
Frame Time: 0.03333333
0.244490 78.841858 -0.889431 0.000000 0.000000 0.000000 5.048746 -15.639258 0.144586 -34.316701 3.004647 9.418387 29.817526 4.835221 1.496636 0.257300 0.349487 -5.843233 0.000000 0.000000 0.000000 5.048746 -15.639258 0.144586 -16.519992 -10.529572 -12.303168 30.690874 -6.651129 1.483212 -16.412268 -2.089468 10.836313 0.000000 0.000000 0.000000 5.048746 -15.639258 0.144586 0.000000 -0.000001 0.000000 23.090848 4.373099 -0.286343 3.699122 1.240177 -0.846331 0.000000 0.000000 0.000000 3.692593 1.312477 -0.857370 -12.698248 1.123395 2.281903 0.000000 0.000000 0.000000 3.692593 1.312477 -0.857370 7.811593 -20.950967 9.744738 -33.643015 -3.124196 -85.445619 0.000020 -42.998326 -4.823170 0.000000 0.000000 0.000000 3.692593 1.312477 -0.857370 13.917692 27.239896 -23.496413 -43.128553 -5.411287 84.812235 0.000046 58.104590 5.767207 0.000000 0.000000 0.000000 
0.276301 78.834999 -0.905487 0.000000 0.000000 0.000000 5.033444 -15.896862 0.169225 -34.285309 2.980185 9.457941 29.890274 5.089340 1.473060 0.209663 0.356705 -5.880273 0.000000 0.000000 0.000000 5.033444 -15.896862 0.169225 -16.654976 -10.560678 -12.353035 30.745823 -6.349133 1.418941 -16.388788 -2.077029 10.797180 0.000000 0.000000 0.000000 5.033444 -15.896862 0.169225 -0.000001 -0.000001 -0.000000 23.090015 4.408899 -0.288113 3.697011 1.270044 -0.848466 0.000000 0.000000 0.000000 3.690615 1.342610 -0.860967 -12.863704 1.675243 2.090667 0.000000 0.000000 0.000000 3.690615 1.342610 -0.860967 7.686570 -20.788205 9.327150 -33.679625 -3.519088 -85.304671 0.000026 -43.357286 -4.333583 0.000000 0.000000 0.000000 3.690615 1.342610 -0.860967 13.325447 26.974534 -22.684436 -43.270662 -4.158112 84.402703 0.000020 57.768053 5.603160 0.000000 0.000000 0.000000 
0.315194 78.820740 -0.934334 0.000000 0.000000 0.000000 5.038039 -16.222918 0.206684 -34.299024 3.020104 9.512518 29.995797 5.345651 1.480472 0.151901 0.364633 -5.929747 0.000000 0.000000 0.000000 5.038039 -16.222918 0.206684 -16.849856 -10.483168 -12.428456 30.862466 -6.054207 1.429205 -16.372498 -2.058923 10.727086 0.000000 0.000000 0.000000 5.038039 -16.222918 0.206684 0.000000 -0.000002 0.000000 23.096582 4.462771 -0.286018 3.678789 1.304125 -0.850522 0.000000 0.000000 0.000000 3.672124 1.375558 -0.864479 -13.000381 2.224549 1.887414 0.000000 0.000000 0.000000 3.672124 1.375558 -0.864479 7.549174 -20.634830 8.867791 -33.753996 -3.967024 -84.994041 0.000040 -43.669661 -3.983624 0.000000 0.000000 0.000000 3.672124 1.375558 -0.864479 12.767501 26.735601 -21.908230 -43.497763 -2.834411 83.950982 0.000004 57.335736 5.420097 0.000000 0.000000 0.000000 
0.357210 78.803200 -0.970255 0.000000 0.000000 0.000000 5.043185 -16.591974 0.252973 -34.304594 2.997798 9.578455 30.118983 5.695495 1.443272 0.089381 0.370620 -5.982966 0.000000 0.000000 0.000000 5.043185 -16.591974 0.252973 -17.108447 -10.522163 -12.524973 31.001406 -5.604979 1.380931 -16.359411 -2.036910 10.640808 0.000000 0.000000 0.000000 5.043185 -16.591974 0.252973 -0.000001 0.000000 0.000000 23.100887 4.515194 -0.287068 3.668305 1.344953 -0.853239 0.000000 0.000000 0.000000 3.661483 1.415971 -0.869071 -13.136377 2.786679 1.677591 0.000000 0.000000 0.000000 3.661483 1.415971 -0.869071 7.406729 -20.484203 8.380335 -33.834445 -4.568832 -84.564121 0.000006 -43.951755 -3.708006 0.000000 0.000000 0.000000 3.661483 1.415971 -0.869071 12.246183 26.525444 -21.177143 -43.721369 -1.487017 83.438643 0.000026 56.901753 5.282923 0.000000 0.000000 0.000000 
0.402061 78.782379 -1.014784 0.000000 0.000000 0.000000 5.047007 -17.009565 0.310825 -34.312958 3.003100 9.655776 30.253305 6.061864 1.405731 0.024401 0.378923 -6.040951 0.000000 0.000000 0.000000 5.047007 -17.009565 0.310825 -17.410760 -10.571011 -12.641359 31.172632 -5.089401 1.329450 -16.349193 -2.009435 10.536239 0.000000 0.000000 0.000000 5.047007 -17.009565 0.310825 0.000000 -0.000001 0.000000 23.108504 4.570236 -0.300599 3.663202 1.389916 -0.859504 0.000000 0.000000 0.000000 3.656698 1.460841 -0.877336 -13.267149 3.372221 1.453685 0.000000 0.000000 0.000000 3.656698 1.460841 -0.877336 7.261374 -20.335582 7.874390 -33.900759 -5.314793 -84.004176 0.000020 -44.245269 -3.519541 0.000000 0.000000 0.000000 3.656698 1.460841 -0.877336 11.748316 26.342274 -20.499932 -43.948477 -0.105501 82.878738 0.000023 56.461141 5.193604 0.000000 0.000000 0.000000 
0.449077 78.758759 -1.069160 0.000000 0.000000 0.000000 5.048274 -17.477523 0.381802 -34.311548 2.986692 9.745483 30.396671 6.494761 1.338885 -0.040196 0.384108 -6.103583 0.000000 0.000000 0.000000 5.048274 -17.477523 0.381802 -17.761791 -10.649978 -12.777599 31.374474 -4.486840 1.261168 -16.340423 -1.977876 10.411859 0.000000 0.000000 0.000000 5.048274 -17.477523 0.381802 0.000000 0.000000 0.000000 23.124876 4.625124 -0.315292 3.660079 1.438316 -0.872507 0.000000 0.000000 0.000000 3.655072 1.510124 -0.886326 -13.388942 3.982228 1.226726 0.000000 0.000000 0.000000 3.655072 1.510124 -0.886326 7.110233 -20.192186 7.333621 -33.920352 -6.236855 -83.284752 0.000000 -44.573121 -3.417248 0.000000 0.000000 0.000000 3.655072 1.510124 -0.886326 11.298998 26.187664 -19.871052 -44.197618 1.305974 82.266241 0.000042 56.009976 5.153712 0.000000 0.000000 0.000000 
0.497246 78.733078 -1.134333 0.000000 0.000000 0.000000 5.046393 -17.993823 0.466371 -34.304075 2.992052 9.847040 30.540091 6.949495 1.264849 -0.099997 0.391369 -6.170830 0.000000 0.000000 0.000000 5.046393 -17.993823 0.466371 -18.151233 -10.722764 -12.928353 31.605751 -3.834678 1.190867 -16.330941 -1.941140 10.269317 0.000000 0.000000 0.000000 5.046393 -17.993823 0.466371 0.000000 0.000001 0.000000 23.150014 4.680537 -0.333732 3.660468 1.487830 -0.885878 0.000000 0.000000 0.000000 3.655086 1.560492 -0.895520 -13.501429 4.634400 1.000140 0.000000 0.000000 0.000000 3.655086 1.560492 -0.895520 6.962387 -20.054499 6.756033 -33.885825 -7.349572 -82.404470 0.000008 -44.931515 -3.390400 0.000000 0.000000 0.000000 3.655086 1.560492 -0.895520 10.875037 26.063611 -19.290432 -44.441022 2.747484 81.617503 0.001835 55.545127 5.154133 0.000000 0.000000 0.000000 
0.545289 78.706314 -1.210876 0.000000 0.000000 0.000000 5.041194 -18.553159 0.563514 -34.285846 3.005169 9.961462 30.678283 7.436590 1.174980 -0.150997 0.396580 -6.241727 0.000000 0.000000 0.000000 5.041194 -18.553159 0.563514 -18.574652 -10.791989 -13.086591 31.860701 -3.139404 1.111468 -16.318054 -1.899927 10.111300 0.000000 0.000000 0.000000 5.041194 -18.553159 0.563514 0.000000 0.000000 0.000000 23.184078 4.730899 -0.355478 3.663062 1.538354 -0.895535 0.000000 0.000000 0.000000 3.657144 1.611357 -0.904699 -13.606602 5.345395 0.779150 0.000000 0.000000 0.000000 3.657144 1.611357 -0.904699 6.800068 -19.918800 6.142013 -33.766939 -8.633840 -81.386471 0.000031 -45.321894 -3.427821 0.000000 0.000000 0.000000 3.657144 1.611357 -0.904699 10.490799 25.967862 -18.763445 -44.686031 4.199348 80.935966 0.001562 55.065969 5.205936 0.000000 0.000000 0.000000 
0.591788 78.679474 -1.299099 0.000000 0.000000 0.000000 5.032652 -19.147923 0.671094 -34.263128 3.073228 10.087421 30.800137 7.904184 1.098056 -0.188262 0.403757 -6.316969 0.000000 0.000000 0.000000 5.032652 -19.147923 0.671094 -19.013971 -10.811967 -13.242894 32.133561 -2.452286 1.044750 -16.299306 -1.854672 9.940395 0.000000 0.000000 0.000000 5.032652 -19.147923 0.671094 0.000000 0.000000 0.000000 23.224185 4.782299 -0.376879 3.668878 1.583142 -0.902791 0.000000 0.000000 0.000000 3.663300 1.656447 -0.912980 -13.708115 6.096597 0.557706 0.000000 0.000000 0.000000 3.663300 1.656447 -0.912980 6.630938 -19.782122 5.500061 -33.566452 -10.041059 -80.260303 0.000005 -45.740527 -3.520683 0.000000 0.000000 0.000000 3.663300 1.656447 -0.912980 10.141138 25.903166 -18.290196 -44.920880 5.658985 80.225735 0.000022 54.575913 5.300033 0.000000 0.000000 0.000000 
0.635379 78.653427 -1.399017 0.000000 0.000000 0.000000 5.020756 -19.769288 0.785590 -34.219364 3.101646 10.226429 30.908792 8.431026 0.984323 -0.209495 0.406474 -6.395049 0.000000 0.000000 0.000000 5.020756 -19.769288 0.785590 -19.479028 -10.856883 -13.389611 32.415883 -1.721220 0.943603 -16.272226 -1.808056 9.761215 0.000000 0.000000 0.000000 5.020756 -19.769288 0.785590 0.000000 0.000001 0.000000 23.269795 4.826931 -0.393506 3.677207 1.623282 -0.907719 0.000000 0.000000 0.000000 3.671912 1.696464 -0.919806 -13.808044 6.893044 0.340279 0.000000 0.000000 0.000000 3.671912 1.696464 -0.919806 6.453173 -19.641379 4.836265 -33.225544 -11.555056 -79.049010 0.000023 -46.262138 -3.664982 0.000000 0.000000 0.000000 3.671912 1.696464 -0.919806 9.829178 25.872261 -17.871067 -45.137350 7.114819 79.489865 0.000036 54.078337 5.433401 0.000000 0.000000 0.000000 
0.674734 78.628822 -1.510567 0.000000 0.000000 0.000000 5.005543 -20.408067 0.903277 -34.173458 3.193424 10.377692 30.992045 8.912591 0.894192 -0.211185 0.410903 -6.476901 0.000000 0.000000 0.000000 5.005543 -20.408067 0.903277 -19.936678 -10.825090 -13.514154 32.703243 -1.049593 0.862257 -16.235828 -1.759052 9.577673 0.000000 0.000000 0.000000 5.005543 -20.408067 0.903277 -0.000001 -0.000001 -0.000000 23.319377 4.871993 -0.406184 3.687932 1.652887 -0.911045 0.000000 0.000000 0.000000 3.682578 1.725123 -0.924897 -13.909349 7.678149 0.106567 0.000000 0.000000 0.000000 3.682578 1.725123 -0.924897 6.287850 -19.495908 4.162847 -32.899379 -13.092212 -77.826611 0.000013 -46.652770 -3.833064 0.000000 0.000000 0.000000 3.682578 1.725123 -0.924897 9.558194 25.876773 -17.509714 -45.332211 8.548774 78.729255 0.000049 53.580437 5.607246 0.000000 0.000000 0.000000 
